<svg preserveAspectRatio="xMidYMid meet" viewBox="0 0 100 100" height="200" width="200" xmlns="http://www.w3.org/2000/svg" version="1.1">
  
  <rect fill="#FD7F15" height="100" width="100"></rect>

  
  <path d="M80,101 C53.74,101 27.48,101 1,101 C1,73.98 1,46.96 1.33,19.55 C5.92,22.84 10.18,26.52 14.31,30.59 C16.84,38.1 12.84,47.4 21.5,52.41 C12.8,57.69 17.66,67.03 13.54,74.18 C22.05,74.29 27.74,83.52 36.56,78.1 C36.79,88.29 47.24,88.86 51.27,95.47 C56.27,91.07 60.84,87.04 65.62,83.37 C68.89,87.31 71.98,90.88 74.99,94.52 C76.73,96.62 78.34,98.84 80,101 Z" fill="#FD7D12"></path>
  
  <path d="M52,1 C68.26,1 84.52,1 101,1 C101,17.02 101,33.04 100.64,49.5 C98.41,48.68 96.47,47.51 94.68,46.14 C92.08,44.17 89.59,42.05 87,39.58 C87.33,36.26 87.72,33.37 88.12,30.44 C82.2,28.43 76.6,26.52 70.96,24.27 C70.12,22.34 69.62,20.46 68.45,19.21 C64.31,14.74 59.88,10.55 55.69,6.13 C54.26,4.61 53.22,2.72 52,1 Z" fill="#FD8119"></path>
  
  <path d="M51.53,1 C53.22,2.72 54.26,4.61 55.69,6.13 C59.88,10.55 64.31,14.74 68.45,19.21 C69.62,20.46 70.12,22.34 70.59,24.38 C69.01,25.17 67.76,25.5 66.28,25.9 C65.51,16.3 55.48,15.57 51.29,8.76 C46.42,15.54 36.46,16.4 36.19,24.45 C31.6,25.4 27.86,26 24.21,26.97 C20.9,27.84 17.69,29.11 14.44,30.2 C10.18,26.52 5.92,22.84 1.33,19.08 C1,13.04 1,7.08 1,1 C17.69,1 34.38,1 51.53,1 Z" fill="#FD7F15"></path>
  
  <path d="M87.06,40 C89.59,42.05 92.08,44.17 94.68,46.14 C96.47,47.51 98.41,48.68 100.64,49.97 C101,66.9 101,83.79 101,101 C94.32,101 87.63,101 80.47,101 C78.34,98.84 76.73,96.62 74.99,94.52 C71.98,90.88 68.89,87.31 65.72,83.03 C65.89,80.94 66.15,79.54 66.43,78.08 C75.25,82.56 80.95,74.22 88.65,73.82 C85.13,66.37 90.12,57.09 82.94,53.15 C84.5,48.16 85.78,44.08 87.06,40 Z" fill="#FD7F15"></path>

  
  <path d="M87,39.58 C85.78,44.08 84.5,48.16 82.94,53.15 C90.12,57.09 85.13,66.37 88.65,73.82 C80.95,74.22 75.25,82.56 66.43,78.08 C66.15,79.54 65.89,80.94 65.52,82.68 C60.84,87.04 56.27,91.07 51.27,95.47 C47.24,88.86 36.79,88.29 36.56,78.1 C27.74,83.52 22.05,74.29 13.54,74.18 C17.66,67.03 12.8,57.69 21.5,52.41 C12.84,47.4 16.84,38.1 14.31,30.59 C17.69,29.11 20.9,27.84 24.21,26.97 C27.86,26 31.6,25.4 36.19,24.45 C36.46,16.4 46.42,15.54 51.29,8.76 C55.48,15.57 65.51,16.3 66.28,25.9 C67.76,25.5 69.01,25.17 70.63,24.73 C76.6,26.52 82.2,28.43 88.12,30.44 C87.72,33.37 87.33,36.26 87,39.58 Z" fill="#FFFEFD"></path>
</svg>
